# Blender v2.76 (sub 0) OBJ File: 'tractor.blend'
# www.blender.org
mtllib barn_window.mtl
o Barn_window_Barn_default.001
v 1.418916 10.897764 -13.852796
v -1.418916 10.897764 -13.852796
v -1.418916 12.969618 -13.852796
v 1.418916 12.969618 -13.852796
v -1.418916 12.969618 -13.984751
v -1.418916 10.897764 -13.984751
v 1.418916 10.897764 -13.984751
v 1.418916 12.969618 -13.984751
v 0.346524 9.501510 14.142953
v 2.028182 9.501511 14.142953
v 2.030604 12.804819 14.142953
v 0.346524 12.804821 14.142953
v -0.346524 9.501510 14.142953
v -0.346524 12.804821 14.142953
v -2.030604 12.804819 14.142953
v -2.028182 9.501511 14.142953
v 8.823004 7.000641 6.563356
v 8.823004 5.930125 6.563356
v -8.823004 7.000644 -7.752290
v -8.823004 7.000643 -6.563354
v -8.823004 5.930127 -6.563354
v -8.823004 5.930128 -7.752290
v -8.823004 4.443297 7.752292
v -8.823004 4.443298 6.563356
v -8.823004 5.513814 6.563356
v -8.823004 5.513814 7.752292
v -8.823004 4.443299 -1.397091
v -8.823004 5.513815 -1.397091
v 8.823004 7.000642 -0.208154
v 8.823004 7.000642 -1.397090
v 8.823004 5.930126 -1.397091
v 8.823004 5.930126 -0.208154
v 8.823004 4.443297 8.168603
v 8.823004 4.443297 9.357539
v 8.823004 5.513814 9.357539
v 8.823004 5.513814 8.168603
v -8.823004 4.443300 -8.168601
v -8.823004 4.443300 -9.357537
v -8.823004 5.513817 -9.357537
v -8.823004 5.513817 -8.168601
v -8.823004 7.000641 9.357539
v -8.823004 5.930125 9.357539
v -8.823004 5.930125 8.168603
v -8.823004 7.000641 8.168603
v -8.823004 7.000642 1.397093
v -8.823004 5.930126 1.397093
v -8.823004 5.930126 0.208156
v -8.823004 7.000642 0.208157
v 8.823004 4.443299 1.397092
v 8.823004 5.513815 1.397093
v 8.823004 5.513815 0.208156
v 8.823004 4.443299 0.208156
v 8.823004 7.000644 -9.357537
v 8.823004 5.930128 -9.357537
v 8.823004 5.930125 8.168603
v 8.823004 5.930125 9.357539
v -8.823004 5.930128 -9.357537
v -8.823004 7.000644 -9.357537
v -8.823004 7.000644 -8.168601
v -8.823004 5.930128 -8.168601
v -8.823004 4.443299 1.397092
v -8.823004 4.443299 0.208156
v 8.823004 5.513814 6.563356
v 8.823004 4.443298 6.563356
v -8.823004 4.443300 -6.563354
v -8.823004 4.443300 -7.752290
v 8.823004 4.443299 -1.397091
v 8.823004 4.443299 -0.208155
v 8.823004 5.513815 -0.208155
v 8.823004 5.513815 -1.397091
v 8.823004 5.930127 -6.563354
v 8.823004 7.000643 -6.563354
v 8.823004 7.000644 -7.752290
v 8.823004 5.930128 -7.752290
v -8.823004 5.930126 -1.397091
v -8.823004 5.930126 -0.208154
v -8.823004 7.000642 -0.208154
v -8.823004 7.000642 -1.397090
v -8.823004 5.930125 6.563356
v -8.823004 5.930125 7.752292
v -8.823004 7.000641 7.752292
v -8.823004 7.000641 6.563356
v 8.823004 5.513817 -9.357537
v 8.823004 5.513817 -8.168601
v 8.823004 4.443300 -8.168601
v 8.823004 4.443300 -9.357537
v 8.823004 5.930126 1.397093
v 8.823004 5.930126 0.208156
v 8.823004 7.000642 0.208157
v 8.823004 7.000642 1.397093
v -8.823004 5.513814 9.357539
v -8.823004 5.513814 8.168603
v -8.823004 4.443297 8.168603
v -8.823004 4.443297 9.357539
v 8.823004 4.443300 -7.752290
v 8.823004 5.513817 -7.752290
v 8.823004 5.513816 -6.563354
v 8.823004 4.443300 -6.563354
v 8.823004 5.930125 7.752292
v -8.823004 4.443299 -0.208155
v -8.823004 5.513815 -0.208155
v 8.823004 5.930128 -8.168601
v 8.823004 7.000644 -8.168601
v -8.823004 5.513815 1.397093
v -8.823004 5.513815 0.208156
v -8.823004 5.513816 -6.563354
v -8.823004 5.513817 -7.752290
v 8.823004 5.513814 7.752292
v 8.823004 4.443297 7.752292
v 8.823004 7.000641 8.168603
v 8.823004 7.000641 9.357539
v 8.823004 7.000641 7.752292
vn 0.000000 0.000000 1.000000
vn 0.000000 0.000000 -1.000000
vn -1.000000 0.000000 0.000000
vn 1.000000 0.000000 0.000000
usemtl blue
s 1
f 4//1 3//1 2//1 1//1
f 5//2 8//2 7//2 6//2
f 9//1 10//1 11//1 12//1
f 14//1 15//1 16//1 13//1
f 75//3 76//3 77//3 78//3
f 79//3 80//3 81//3 82//3
f 83//4 84//4 85//4 86//4
f 87//4 88//4 89//4 90//4
f 91//3 92//3 93//3 94//3
f 95//4 96//4 97//4 98//4
f 106//3 107//3 66//3 65//3
f 63//4 108//4 109//4 64//4
f 56//4 55//4 110//4 111//4
f 33//4 36//4 35//4 34//4
f 23//3 26//3 25//3 24//3
f 19//3 22//3 21//3 20//3
f 71//4 74//4 73//4 72//4
f 70//4 69//4 68//4 67//4
f 57//3 60//3 59//3 58//3
f 103//4 102//4 54//4 53//4
f 52//4 51//4 50//4 49//4
f 48//3 47//3 46//3 45//3
f 44//3 43//3 42//3 41//3
f 37//3 40//3 39//3 38//3
f 29//4 32//4 31//4 30//4
f 100//3 101//3 28//3 27//3
f 112//4 99//4 18//4 17//4
f 104//3 105//3 62//3 61//3
