# Blender v2.76 (sub 0) OBJ File: 'tractor.blend'
# www.blender.org
mtllib tractor_wheel_back_R.mtl
o wheel_rear_right_tractor.006
v -1.021955 1.408276 -2.681940
v -1.021955 0.941963 -2.589178
v -1.601473 1.408276 -2.681940
v -1.601473 0.941963 -2.589178
v -1.021955 0.546655 -2.325037
v -1.601473 0.546655 -2.325037
v -1.021955 0.282498 -1.929713
v -1.601473 0.282513 -1.929713
v -1.021955 2.534069 -1.929712
v -1.021955 2.269912 -2.325036
v -1.601473 2.534069 -1.929712
v -1.601473 2.269912 -2.325036
v -1.021955 1.874589 -2.589178
v -1.601473 1.874589 -2.589178
v -1.389747 1.147320 -2.093418
v -1.389747 0.926084 -1.945592
v -1.389747 1.408276 -2.145328
v -1.389747 1.669247 -2.093418
v -1.601473 1.408276 -2.206792
v -1.601473 1.123800 -2.150213
v -1.649096 1.408276 -2.444366
v -1.649096 1.032889 -2.369687
v -1.601473 0.882627 -1.989063
v -1.649096 0.714633 -2.157042
v -1.389747 0.778272 -1.724371
v -1.389747 0.726363 -1.463399
v -1.601473 0.721478 -1.747875
v -1.649096 0.501988 -1.838801
v -1.601473 0.664898 -1.463399
v -1.389747 0.778272 -1.202443
v -1.389747 0.926084 -0.981207
v -1.389747 1.147319 -0.833395
v -1.389747 1.408276 -0.781486
v -1.389747 1.669247 -0.833395
v -1.389747 1.890483 -0.981207
v -1.389747 2.038295 -1.202443
v -1.389747 2.090204 -1.463399
v -1.601473 2.095074 -1.178923
v -1.601473 2.151669 -1.463399
v -1.389747 2.038295 -1.724355
v -1.389747 1.890483 -1.945592
v -1.601473 2.095089 -1.747890
v -1.649096 2.389243 -1.463399
v -1.649096 2.314564 -1.838802
v -1.601473 1.933940 -1.989063
v -1.649096 2.101918 -2.157042
v -1.601473 1.692768 -2.150213
v -1.649096 1.783678 -2.369687
v -1.159079 0.926084 -1.945606
v -1.159079 1.147320 -2.093418
v -1.159079 1.408276 -2.145328
v -1.159079 1.669247 -2.093418
v -1.021955 1.408276 -2.206792
v -1.021955 1.123800 -2.150197
v -0.974333 1.408276 -2.444366
v -0.974333 1.032889 -2.369687
v -1.021955 0.882627 -1.989063
v -0.974333 0.714633 -2.157042
v -1.159079 0.726363 -1.463399
v -1.159079 0.778272 -1.724355
v -1.021955 0.721478 -1.747891
v -0.974333 0.501988 -1.838801
v -1.021955 0.664898 -1.463399
v -0.974333 0.427324 -1.463399
v -1.159079 0.926084 -0.981207
v -1.159079 0.778272 -1.202443
v -1.021955 0.721478 -1.178923
v -0.974333 0.501988 -1.088012
v -1.021955 0.882627 -0.937750
v -1.159079 1.408276 -0.781486
v -1.159079 1.147319 -0.833395
v -1.159079 1.669247 -0.833395
v -1.159079 1.890483 -0.981207
v -1.021955 1.692767 -0.776601
v -1.021955 1.933940 -0.937750
v -1.159079 2.090204 -1.463399
v -1.159079 2.038295 -1.202443
v -1.021955 2.095074 -1.178923
v -0.974333 2.101918 -0.769756
v -0.974333 2.314564 -1.088012
v -1.021955 2.151669 -1.463399
v -0.974333 2.389243 -1.463399
v -1.159079 1.890483 -1.945592
v -1.159079 2.038295 -1.724355
v -1.021955 2.095089 -1.747875
v -0.974333 2.314564 -1.838801
v -1.021955 1.933940 -1.989063
v -0.974333 2.101918 -2.157042
v -1.021955 1.692768 -2.150197
v -0.974333 1.783678 -2.369687
v -1.021955 2.534069 -0.997086
v -1.021955 2.626817 -1.463399
v -1.021955 0.189750 -1.463399
v -1.601473 0.189750 -1.463399
v -1.021955 0.282513 -0.997087
v -1.601473 0.282498 -0.997087
v -1.021955 0.546655 -0.601778
v -1.601473 0.546655 -0.601778
v -1.021955 0.941963 -0.337621
v -1.601473 0.941963 -0.337621
v -1.021955 1.408276 -0.244873
v -1.601473 1.408276 -0.244873
v -1.021955 1.874588 -0.337621
v -1.601473 1.874588 -0.337621
v -1.021955 2.269912 -0.601778
v -1.601473 2.269912 -0.601778
v -1.601473 2.534069 -0.997086
v -1.601473 2.626817 -1.463399
v -1.649096 0.427324 -1.463399
v -1.601473 0.721478 -1.178923
v -1.649096 0.501988 -1.088012
v -1.601473 0.882627 -0.937750
v -1.649096 0.714648 -0.769756
v -1.601473 1.123799 -0.776601
v -1.649096 1.032889 -0.557111
v -1.601473 1.408276 -0.720021
v -1.649096 1.408276 -0.482447
v -1.601473 1.692767 -0.776602
v -1.649096 1.783678 -0.557111
v -1.601473 1.933940 -0.937751
v -1.649096 2.101918 -0.769756
v -1.649096 2.314564 -1.088012
v -0.974333 0.714633 -0.769756
v -1.021955 1.123799 -0.776601
v -0.974333 1.032889 -0.557111
v -1.021955 1.408276 -0.720021
v -0.974333 1.408276 -0.482447
v -0.974333 1.783678 -0.557111
vt 0.796387 0.624268
vt 0.789551 0.607422
vt 0.826172 0.604248
vt 0.994629 0.755859
vt 0.994629 0.696045
vt 0.921875 0.755859
vt 0.921875 0.696045
vt 0.994629 0.636230
vt 0.921875 0.636230
vt 0.994629 0.576416
vt 0.921875 0.576416
vt 0.994629 0.935486
vt 0.994629 0.875610
vt 0.921875 0.935486
vt 0.921875 0.875610
vt 0.994629 0.815796
vt 0.921875 0.815796
vt 0.853516 0.539063
vt 0.846191 0.503906
vt 0.834961 0.539063
vt 0.829590 0.510986
vt 0.882813 0.539063
vt 0.873535 0.492676
vt 0.826172 0.474121
vt 0.813477 0.487305
vt 0.847168 0.453613
vt 0.796387 0.454102
vt 0.789551 0.471191
vt 0.807617 0.427246
vt 0.761230 0.447266
vt 0.761230 0.465332
vt 0.761230 0.631104
vt 0.761230 0.613037
vt 0.761230 0.660645
vt 0.807617 0.651367
vt 0.813477 0.591309
vt 0.847168 0.625000
vt 0.846191 0.574463
vt 0.829590 0.567383
vt 0.873535 0.585693
vt 0.912109 0.539063
vt 0.900879 0.481445
vt 0.868164 0.432617
vt 0.818848 0.678467
vt 0.868164 0.645752
vt 0.900879 0.596924
vt 0.761230 0.417969
vt 0.818848 0.399902
vt 0.761230 0.388672
vt 0.761230 0.689941
vt 0.994629 0.516357
vt 0.921875 0.516357
vt 0.994629 0.995342
vt 0.921875 0.995342
vn 0.792400 -0.459900 0.400800
vn 0.794800 -0.580000 0.178800
vn 0.462200 -0.798700 0.385400
vn 0.638900 0.050900 -0.767600
vn 0.638900 -0.246700 -0.728700
vn -0.639400 -0.034000 -0.768200
vn -0.639300 -0.325300 -0.696700
vn 0.638900 -0.506800 -0.578800
vn -0.639300 -0.567200 -0.519200
vn 0.638900 -0.689700 -0.340800
vn -0.639400 -0.722700 -0.262600
vn 0.638900 0.728700 -0.246700
vn 0.638900 0.578800 -0.506800
vn -0.639300 0.696700 -0.325300
vn -0.639400 0.519200 -0.567200
vn 0.638900 0.340800 -0.689700
vn -0.639300 0.262600 -0.722700
vn -0.739600 -0.029200 0.672400
vn -0.739600 0.230300 0.632400
vn -0.370200 0.071600 0.926200
vn -0.370300 0.420600 0.828300
vn -0.999900 -0.013300 0.000000
vn -0.999900 -0.012300 0.005100
vn -0.739600 0.454800 0.496100
vn -0.300000 0.753000 0.585600
vn -0.999900 -0.009400 0.009400
vn -0.739600 0.610100 0.284300
vn -0.370300 0.883100 0.288300
vn -0.999900 -0.005100 0.012300
vn -0.739600 0.672400 0.029200
vn -0.300000 0.946600 -0.118400
vn -0.739600 -0.610100 -0.284300
vn -0.739600 -0.672400 -0.029200
vn -0.370200 -0.883100 -0.288300
vn -0.300000 -0.946600 0.118400
vn -0.739600 -0.632400 0.230300
vn -0.370300 -0.828300 0.420600
vn -0.999900 -0.000000 -0.013300
vn -0.999900 -0.005000 -0.012300
vn -0.739600 -0.496100 0.454800
vn -0.300000 -0.585600 0.753000
vn -0.999900 -0.009400 -0.009400
vn -0.739600 -0.284300 0.610000
vn -0.370300 -0.288300 0.883000
vn -0.999900 -0.012300 -0.005100
vn 0.783800 -0.026400 0.620500
vn 0.425100 0.094100 0.900200
vn 0.783800 0.213100 0.583400
vn 0.425100 0.431400 0.795700
vn 0.999900 -0.013300 0.000000
vn 0.999900 -0.012300 0.005100
vn 0.783800 0.420100 0.457400
vn 0.439000 0.568800 0.695500
vn 0.999900 -0.009400 0.009400
vn 0.783800 0.563100 0.261800
vn 0.425200 0.867700 0.257500
vn 0.999900 -0.005100 0.012300
vn 0.783800 0.620500 0.026400
vn 0.439100 0.894000 0.089500
vn 0.999900 0.000000 0.013300
vn 0.783800 0.583300 -0.213100
vn 0.425200 0.795700 -0.431400
vn 0.999900 0.005100 0.012300
vn 0.783800 0.457400 -0.420100
vn 0.439000 0.695500 -0.568800
vn 0.783800 -0.213100 -0.583300
vn 0.439100 -0.259400 -0.860200
vn 0.783800 -0.420100 -0.457400
vn 0.439000 -0.568900 -0.695400
vn 0.783800 -0.563200 -0.261800
vn 0.425100 -0.867700 -0.257600
vn 0.999900 0.009400 -0.009400
vn 0.999900 0.005100 -0.012300
vn 0.783800 -0.620500 -0.026400
vn 0.439100 -0.894000 -0.089500
vn 0.999900 -0.000000 -0.013300
vn 0.999900 -0.005000 -0.012300
vn 0.439100 -0.695500 0.568800
vn 0.999900 -0.009400 -0.009400
vn 0.783800 -0.261800 0.563200
vn 0.425100 -0.257600 0.867700
vn 0.999900 -0.012300 -0.005100
vn 0.638900 0.689700 0.340800
vn 0.638900 0.767600 0.050900
vn 0.638900 -0.767600 -0.050900
vn -0.639300 -0.768200 0.033900
vn 0.638900 -0.728700 0.246700
vn -0.639400 -0.696700 0.325300
vn 0.638900 -0.578800 0.506800
vn -0.639300 -0.519200 0.567200
vn 0.638900 -0.340800 0.689700
vn -0.639400 -0.262600 0.722700
vn 0.638900 -0.050900 0.767600
vn -0.639300 0.033900 0.768200
vn 0.638900 0.246700 0.728700
vn -0.639300 0.325300 0.696700
vn 0.638900 0.506800 0.578800
vn -0.639300 0.567200 0.519200
vn -0.639400 0.722700 0.262600
vn -0.639300 0.768200 -0.033900
vn -0.999900 0.000000 0.013300
vn -0.739600 0.632400 -0.230300
vn -0.370300 0.828300 -0.420600
vn -0.999900 0.005100 0.012300
vn -0.739600 0.496100 -0.454800
vn -0.300000 0.585600 -0.753100
vn -0.999900 0.009400 0.009400
vn -0.739600 0.284300 -0.610000
vn -0.370300 0.288200 -0.883100
vn -0.999900 0.012300 0.005100
vn -0.739600 0.029200 -0.672400
vn -0.300000 -0.118400 -0.946600
vn -0.999900 0.013300 -0.000000
vn -0.739600 -0.230300 -0.632400
vn -0.300000 -0.471600 -0.829200
vn -0.999900 0.012300 -0.005100
vn -0.739600 -0.454800 -0.496100
vn -0.300000 -0.753000 -0.585600
vn -0.999900 0.009400 -0.009400
vn -0.999900 0.005100 -0.012300
vn 0.999900 0.009400 0.009400
vn 0.783800 0.261800 -0.563200
vn 0.425200 0.257500 -0.867700
vn 0.999900 0.012300 0.005100
vn 0.783800 0.026400 -0.620500
vn 0.439100 0.089500 -0.894000
vn 0.999900 0.013300 -0.000000
vn 0.999900 0.012300 -0.005100
usemtl tractor
s 1
f 87/1/1 85/2/2 84/3/3
usemtl tractor_tractor_d.tga
f 1/4/4 2/5/5 3/6/6
f 3/6/6 2/5/5 4/7/7
f 4/7/7 2/5/5 5/8/8
f 4/7/7 5/8/8 6/9/9
f 5/8/8 7/10/10 6/9/9
f 6/9/9 7/10/10 8/11/11
f 9/12/12 10/13/13 11/14/14
f 11/14/14 10/13/13 12/15/15
f 12/15/15 10/13/13 13/16/16
f 12/15/15 13/16/16 14/17/17
f 13/16/16 1/4/4 14/17/17
f 14/17/17 1/4/4 3/6/6
f 19/18/18 20/19/19 17/20/20
f 17/20/20 20/19/19 15/21/21
f 21/22/22 22/23/23 19/18/18
f 19/18/18 22/23/23 20/19/19
f 20/19/19 23/24/24 15/21/21
f 15/21/21 23/24/24 16/25/25
f 22/23/23 24/26/26 20/19/19
f 20/19/19 24/26/26 23/24/24
f 23/24/24 27/27/27 16/25/25
f 16/25/25 27/27/27 25/28/28
f 24/26/26 28/29/29 23/24/24
f 23/24/24 28/29/29 27/27/27
f 27/27/27 29/30/30 25/28/28
f 25/28/28 29/30/30 26/31/31
f 38/27/32 39/30/33 36/28/34
f 36/28/34 39/30/33 37/31/35
f 39/32/33 42/1/36 37/33/35
f 37/33/35 42/1/36 40/2/37
f 43/34/38 44/35/39 39/32/33
f 39/32/33 44/35/39 42/1/36
f 42/1/36 45/3/40 40/2/37
f 40/2/37 45/3/40 41/36/41
f 44/35/39 46/37/42 42/1/36
f 42/1/36 46/37/42 45/3/40
f 45/3/40 47/38/43 41/36/41
f 41/36/41 47/38/43 18/39/44
f 46/37/42 48/40/45 45/3/40
f 45/3/40 48/40/45 47/38/43
f 47/38/43 19/18/18 18/39/44
f 18/39/44 19/18/18 17/20/20
f 48/40/45 21/22/22 47/38/43
f 47/38/43 21/22/22 19/18/18
f 3/41/6 4/42/7 21/22/22
f 21/22/22 4/42/7 22/23/23
f 4/42/7 6/43/9 22/23/23
f 22/23/23 6/43/9 24/26/26
f 11/44/14 12/45/15 44/35/39
f 44/35/39 12/45/15 46/37/42
f 12/45/15 14/46/17 46/37/42
f 46/37/42 14/46/17 48/40/45
f 14/46/17 3/41/6 48/40/45
f 48/40/45 3/41/6 21/22/22
f 53/18/46 51/20/47 54/19/48
f 54/19/48 51/20/47 50/21/49
f 55/22/50 53/18/46 56/23/51
f 56/23/51 53/18/46 54/19/48
f 54/19/48 50/21/49 57/24/52
f 57/24/52 50/21/49 49/25/53
f 56/23/51 54/19/48 58/26/54
f 58/26/54 54/19/48 57/24/52
f 57/24/52 49/25/53 61/27/55
f 61/27/55 49/25/53 60/28/56
f 58/26/54 57/24/52 62/29/57
f 62/29/57 57/24/52 61/27/55
f 61/27/55 60/28/56 63/30/58
f 63/30/58 60/28/56 59/31/59
f 62/29/57 61/27/55 64/47/60
f 64/47/60 61/27/55 63/30/58
f 63/32/58 59/33/59 67/1/61
f 67/1/61 59/33/59 66/2/62
f 64/34/60 63/32/58 68/35/63
f 68/35/63 63/32/58 67/1/61
f 67/1/61 66/2/62 69/3/64
f 69/3/64 66/2/62 65/36/65
f 74/19/66 72/21/67 75/24/68
f 75/24/68 72/21/67 73/25/69
f 75/24/68 73/25/69 78/27/70
f 78/27/70 73/25/69 77/28/71
f 79/26/72 75/24/68 80/29/73
f 80/29/73 75/24/68 78/27/70
f 78/27/70 77/28/71 81/30/74
f 81/30/74 77/28/71 76/31/75
f 80/29/73 78/27/70 82/47/76
f 82/47/76 78/27/70 81/30/74
f 81/32/74 76/33/75 85/1/2
f 85/1/2 76/33/75 84/2/3
f 82/34/76 81/32/74 86/35/77
f 86/35/77 81/32/74 85/1/2
f 87/3/1 84/2/3 83/36/78
f 86/35/77 85/1/2 88/37/79
f 88/37/79 85/1/2 87/3/1
f 87/3/1 83/36/78 89/38/80
f 89/38/80 83/36/78 52/39/81
f 88/37/79 87/3/1 90/40/82
f 90/40/82 87/3/1 89/38/80
f 89/38/80 52/39/81 53/18/46
f 53/18/46 52/39/81 51/20/47
f 90/40/82 89/38/80 55/22/50
f 55/22/50 89/38/80 53/18/46
f 1/41/4 55/22/50 2/42/5
f 2/42/5 55/22/50 56/23/51
f 2/42/5 56/23/51 5/43/8
f 5/43/8 56/23/51 58/26/54
f 5/43/8 58/26/54 7/48/10
f 7/48/10 58/26/54 62/29/57
f 91/48/83 80/29/73 92/49/84
f 92/49/84 80/29/73 82/47/76
f 92/50/84 82/34/76 9/44/12
f 9/44/12 82/34/76 86/35/77
f 9/44/12 86/35/77 10/45/13
f 10/45/13 86/35/77 88/37/79
f 10/45/13 88/37/79 13/46/16
f 13/46/16 88/37/79 90/40/82
f 13/46/16 90/40/82 1/41/4
f 1/41/4 90/40/82 55/22/50
f 7/10/10 93/51/85 8/11/11
f 8/11/11 93/51/85 94/52/86
f 93/53/85 95/12/87 94/54/86
f 94/54/86 95/12/87 96/14/88
f 95/12/87 97/13/89 96/14/88
f 96/14/88 97/13/89 98/15/90
f 97/13/89 99/16/91 98/15/90
f 98/15/90 99/16/91 100/17/92
f 99/16/91 101/4/93 100/17/92
f 100/17/92 101/4/93 102/6/94
f 101/4/93 103/5/95 102/6/94
f 102/6/94 103/5/95 104/7/96
f 103/5/95 105/8/97 104/7/96
f 104/7/96 105/8/97 106/9/98
f 105/8/97 91/10/83 106/9/98
f 106/9/98 91/10/83 107/11/99
f 91/10/83 92/51/84 107/11/99
f 107/11/99 92/51/84 108/52/100
f 28/29/29 109/47/101 27/27/27
f 27/27/27 109/47/101 29/30/30
f 29/32/30 110/1/102 26/33/31
f 26/33/31 110/1/102 30/2/103
f 109/34/101 111/35/104 29/32/30
f 29/32/30 111/35/104 110/1/102
f 110/1/102 112/3/105 30/2/103
f 30/2/103 112/3/105 31/36/106
f 111/35/104 113/37/107 110/1/102
f 110/1/102 113/37/107 112/3/105
f 112/3/105 114/38/108 31/36/106
f 31/36/106 114/38/108 32/39/109
f 113/37/107 115/40/110 112/3/105
f 112/3/105 115/40/110 114/38/108
f 114/38/108 116/18/111 32/39/109
f 32/39/109 116/18/111 33/20/112
f 115/40/110 117/22/113 114/38/108
f 114/38/108 117/22/113 116/18/111
f 116/18/111 118/19/114 33/20/112
f 33/20/112 118/19/114 34/21/115
f 117/22/113 119/23/116 116/18/111
f 116/18/111 119/23/116 118/19/114
f 118/19/114 120/24/117 34/21/115
f 34/21/115 120/24/117 35/25/118
f 119/23/116 121/26/119 118/19/114
f 118/19/114 121/26/119 120/24/117
f 120/24/117 38/27/32 35/25/118
f 35/25/118 38/27/32 36/28/34
f 121/26/119 122/29/120 120/24/117
f 120/24/117 122/29/120 38/27/32
f 122/29/120 43/47/38 38/27/32
f 38/27/32 43/47/38 39/30/33
f 8/48/11 94/49/86 28/29/29
f 28/29/29 94/49/86 109/47/101
f 94/50/86 96/44/88 109/34/101
f 109/34/101 96/44/88 111/35/104
f 96/44/88 98/45/90 111/35/104
f 111/35/104 98/45/90 113/37/107
f 98/45/90 100/46/92 113/37/107
f 113/37/107 100/46/92 115/40/110
f 100/46/92 102/41/94 115/40/110
f 115/40/110 102/41/94 117/22/113
f 102/41/94 104/42/96 117/22/113
f 117/22/113 104/42/96 119/23/116
f 104/42/96 106/43/98 119/23/116
f 119/23/116 106/43/98 121/26/119
f 106/43/98 107/48/99 121/26/119
f 121/26/119 107/48/99 122/29/120
f 107/48/99 108/49/100 122/29/120
f 122/29/120 108/49/100 43/47/38
f 68/35/63 67/1/61 123/37/121
f 123/37/121 67/1/61 69/3/64
f 69/3/64 65/36/65 124/38/122
f 124/38/122 65/36/65 71/39/123
f 123/37/121 69/3/64 125/40/124
f 125/40/124 69/3/64 124/38/122
f 124/38/122 71/39/123 126/18/125
f 126/18/125 71/39/123 70/20/126
f 125/40/124 124/38/122 127/22/127
f 127/22/127 124/38/122 126/18/125
f 126/18/125 70/20/126 74/19/66
f 74/19/66 70/20/126 72/21/67
f 127/22/127 126/18/125 128/23/128
f 128/23/128 126/18/125 74/19/66
f 128/23/128 74/19/66 79/26/72
f 79/26/72 74/19/66 75/24/68
f 7/48/10 62/29/57 93/49/85
f 93/49/85 62/29/57 64/47/60
f 93/50/85 64/34/60 95/44/87
f 95/44/87 64/34/60 68/35/63
f 95/44/87 68/35/63 97/45/89
f 97/45/89 68/35/63 123/37/121
f 97/45/89 123/37/121 99/46/91
f 99/46/91 123/37/121 125/40/124
f 99/46/91 125/40/124 101/41/93
f 101/41/93 125/40/124 127/22/127
f 101/41/93 127/22/127 103/42/95
f 103/42/95 127/22/127 128/23/128
f 103/42/95 128/23/128 105/43/97
f 105/43/97 128/23/128 79/26/72
f 105/43/97 79/26/72 91/48/83
f 91/48/83 79/26/72 80/29/73
f 6/43/9 8/48/11 24/26/26
f 24/26/26 8/48/11 28/29/29
f 92/53/84 9/12/12 108/54/100
f 108/54/100 9/12/12 11/14/14
f 108/50/100 11/44/14 43/34/38
f 43/34/38 11/44/14 44/35/39
