# Blender v2.76 (sub 0) OBJ File: 'tractor.blend'
# www.blender.org
mtllib tractor_wheel_front_R.mtl
o wheel_front_right_tractor.002
v -1.222303 0.217389 2.124443
v -1.222303 0.217389 2.370929
v -1.222303 0.486001 2.772944
v -1.222303 1.187935 1.722428
v -1.213460 1.134502 2.124435
v -1.213460 1.064692 2.019966
v -1.468574 0.682507 1.874795
v -1.468574 0.836964 1.844063
v -1.441165 0.836964 1.603580
v -1.441165 0.590479 1.652610
v -1.222303 0.836964 1.603580
v -1.222303 0.590479 1.652610
v -1.222303 1.083450 1.652610
v -1.222303 0.381524 1.792245
v -1.468574 0.551569 1.962291
v -1.441165 0.381524 1.792245
v -1.468574 0.464074 2.093228
v -1.441165 0.241904 2.001200
v -1.222303 0.241904 2.001200
v -1.222303 0.192873 2.247686
v -1.468574 0.433357 2.247686
v -1.441165 0.192873 2.247686
v -1.468574 0.464073 2.402128
v -1.441165 0.241904 2.494172
v -1.222303 0.241904 2.494172
v -1.222303 0.381524 2.703127
v -1.468574 0.551569 2.533081
v -1.441165 0.381524 2.703127
v -1.468574 0.682522 2.620577
v -1.441165 0.590478 2.842762
v -1.222303 0.590478 2.842762
v -1.222303 0.836964 2.891777
v -1.468574 0.836964 2.651294
v -1.441165 0.836964 2.891777
v -1.468574 0.991422 2.620577
v -1.441165 1.083450 2.842762
v -1.222303 1.083450 2.842762
v -1.222303 1.292420 2.703127
v -1.468574 1.122375 2.533081
v -1.441165 1.292420 2.703127
v -1.468574 1.209855 2.402128
v -1.441165 1.432040 2.494172
v -1.222303 1.432040 2.494172
v -1.222303 1.481071 2.247686
v -1.468574 1.240588 2.247686
v -1.441165 1.481071 2.247686
v -1.468574 1.209855 2.093229
v -1.441165 1.432040 2.001185
v -1.222303 1.432040 2.001185
v -1.222303 1.292421 1.792245
v -1.468574 1.122375 1.962291
v -1.441165 1.292421 1.792245
v -1.468574 0.991422 1.874795
v -1.441165 1.083450 1.652610
v -1.222303 1.362230 2.598650
v -1.213460 1.159018 2.247686
v -1.213460 1.134502 2.370929
v -1.213460 0.609244 2.019966
v -1.213460 0.960207 1.950148
v -1.213460 0.836964 1.925633
v -1.222303 0.486001 1.722428
v -1.222303 0.713722 1.628095
v -1.213460 0.713721 1.950148
v -1.222303 1.456556 2.124435
v -1.222303 0.960207 1.628095
v -1.222303 1.456556 2.370929
v -1.222303 0.311714 2.598649
v -1.213460 0.539434 2.370929
v -1.222303 1.362230 1.896715
v -1.213460 0.609244 2.475406
v -1.213460 0.514919 2.247686
v -1.213460 0.539434 2.124443
v -1.222303 1.187935 2.772944
v -1.213460 1.064692 2.475406
v -1.222303 0.311714 1.896723
v -1.213460 0.960207 2.545224
v -1.222303 0.713721 2.867269
v -1.213460 0.713721 2.545224
v -1.222303 0.960207 2.867269
v -1.213460 0.836964 2.569731
vt 0.689697 0.560913
vt 0.726318 0.545776
vt 0.717773 0.532959
vt 0.681152 0.548096
vt 0.674805 0.517822
vt 0.681152 0.487793
vt 0.704590 0.517822
vt 0.708496 0.499023
vt 0.599609 0.689209
vt 0.583740 0.689209
vt 0.567871 0.689209
vt 0.599609 0.661621
vt 0.567871 0.661621
vt 0.714600 0.517822
vt 0.677979 0.502807
vt 0.677979 0.532959
vt 0.698242 0.461914
vt 0.689697 0.474854
vt 0.726318 0.489868
vt 0.719238 0.482910
vt 0.552002 0.689209
vt 0.536133 0.689209
vt 0.536133 0.661621
vt 0.724121 0.444824
vt 0.735352 0.472168
vt 0.520264 0.689209
vt 0.504395 0.689209
vt 0.504395 0.661621
vt 0.711182 0.453369
vt 0.754395 0.438477
vt 0.739258 0.441651
vt 0.754395 0.478150
vt 0.754395 0.468262
vt 0.488770 0.689209
vt 0.473145 0.689209
vt 0.473145 0.661621
vt 0.754395 0.596924
vt 0.724121 0.591064
vt 0.754395 0.567383
vt 0.735352 0.563721
vt 0.726074 0.689209
vt 0.710205 0.689209
vt 0.694336 0.689209
vt 0.726074 0.661621
vt 0.694336 0.661621
vt 0.754395 0.557373
vt 0.739258 0.593994
vt 0.698242 0.573730
vt 0.711182 0.582397
vt 0.719238 0.552979
vt 0.678711 0.689209
vt 0.663086 0.689209
vt 0.663086 0.661621
vt 0.708496 0.536865
vt 0.647217 0.689209
vt 0.631348 0.689209
vt 0.631348 0.661621
vt 0.615479 0.689209
vt 0.739258 0.554443
vt 0.739258 0.481323
vt 0.717773 0.502807
vn 0.608000 0.491200 -0.623700
vn 0.996800 0.041100 -0.068000
vn 0.997200 -0.009200 -0.074800
vn 0.597400 0.193100 -0.778400
vn -0.671700 -0.038900 -0.739800
vn -0.671700 -0.319000 -0.668600
vn -0.987300 -0.043100 -0.152700
vn -0.990800 -0.095800 -0.095200
vn 0.554100 0.054100 -0.830700
vn 0.785300 -0.123200 -0.606700
vn 0.554100 -0.268000 -0.788200
vn 0.997600 -0.049100 -0.047900
vn 0.604700 0.103800 -0.789700
vn 0.554100 -0.549200 -0.625600
vn 0.751600 -0.278400 -0.597900
vn 0.996800 -0.068000 -0.041100
vn -0.671700 -0.550600 -0.495600
vn -0.985200 -0.123000 -0.119400
vn -0.671700 -0.698400 -0.247200
vn -0.990800 -0.135100 0.000400
vn 0.760800 -0.583800 -0.283600
vn 0.554100 -0.746800 -0.367900
vn 0.554100 -0.830700 -0.054100
vn 0.751600 -0.619700 -0.226000
vn 0.996800 -0.077100 0.019000
vn -0.671700 -0.739800 0.038900
vn -0.985200 -0.171400 0.002600
vn -0.671700 -0.668600 0.319000
vn -0.990800 -0.095200 0.095800
vn 0.760700 -0.613400 0.212300
vn 0.554100 -0.788200 0.267900
vn 0.554100 -0.625600 0.549200
vn 0.751700 -0.597900 0.278400
vn 0.996800 -0.041100 0.068000
vn -0.671700 -0.495600 0.550600
vn -0.985200 -0.119300 0.123000
vn -0.671700 -0.247100 0.698400
vn -0.990800 0.000400 0.135100
vn 0.760700 -0.283700 0.583800
vn 0.554100 -0.367800 0.746800
vn 0.554100 -0.054100 0.830700
vn 0.751600 -0.225900 0.619700
vn 0.996800 0.019000 0.077100
vn -0.671700 0.038900 0.739800
vn -0.985200 0.002600 0.171400
vn -0.671700 0.319000 0.668600
vn -0.990800 0.095800 0.095200
vn 0.760700 0.212300 0.613400
vn 0.554100 0.267900 0.788200
vn 0.554100 0.549200 0.625600
vn 0.751600 0.278400 0.597900
vn 0.996800 0.068000 0.041100
vn -0.671700 0.550600 0.495600
vn -0.985200 0.123000 0.119300
vn -0.671700 0.698400 0.247100
vn -0.990800 0.135000 -0.000400
vn 0.760700 0.583800 0.283600
vn 0.554100 0.746800 0.367900
vn 0.554100 0.830700 0.054000
vn 0.751600 0.619700 0.226000
vn 0.996800 0.077100 -0.019000
vn -0.671700 0.739800 -0.038900
vn -0.985200 0.171300 -0.002600
vn -0.671700 0.668600 -0.319000
vn -0.990800 0.095200 -0.095800
vn 0.760700 0.613400 -0.212300
vn 0.554100 0.788200 -0.267900
vn 0.554100 0.625600 -0.549200
vn 0.751600 0.597900 -0.278400
vn -0.671700 0.495600 -0.550600
vn -0.985200 0.119400 -0.123000
vn -0.671700 0.247200 -0.698400
vn -0.990800 -0.000400 -0.135100
vn 0.996800 0.069800 -0.039800
vn 0.996800 0.077500 0.021200
vn 0.996800 0.039800 0.069800
vn 0.996800 -0.021200 0.077400
vn 0.996800 -0.069800 0.039800
vn 0.996800 -0.077500 -0.021200
vn 0.996800 -0.039800 -0.069800
usemtl tractor
s 1
f 4/1/1 6/2/2 59/3/3
f 4/1/1 59/3/3 13/4/4
f 9/5/5 10/6/6 8/7/7
f 8/7/7 10/6/6 7/8/8
f 11/9/9 62/10/10 12/11/11 9/12/5
f 9/12/5 12/11/11 10/13/6
f 11/5/9 60/14/12 62/15/10
f 11/5/9 65/16/13 60/14/12
f 14/17/14 61/18/15 58/19/16
f 10/6/6 16/17/17 7/8/8
f 7/8/8 16/17/17 15/20/18
f 12/11/11 61/21/15 14/22/14 10/13/6
f 10/13/6 14/22/14 16/23/17
f 16/17/17 18/24/19 15/20/18
f 15/20/18 18/24/19 17/25/20
f 14/22/14 75/26/21 19/27/22 16/23/17
f 16/23/17 19/27/22 18/28/19
f 14/17/14 58/19/16 75/29/21
f 20/30/23 1/31/24 71/32/25
f 18/24/19 22/30/26 17/25/20
f 17/25/20 22/30/26 21/33/27
f 19/27/22 1/34/24 20/35/23 18/28/19
f 18/28/19 20/35/23 22/36/26
f 22/37/26 24/38/28 21/39/27
f 21/39/27 24/38/28 23/40/29
f 20/41/23 2/42/30 25/43/31 22/44/26
f 22/44/26 25/43/31 24/45/28
f 20/37/23 71/46/25 2/47/30
f 26/48/32 67/49/33 70/2/34
f 24/38/28 28/48/35 23/40/29
f 23/40/29 28/48/35 27/50/36
f 25/43/31 67/51/33 26/52/32 24/45/28
f 24/45/28 26/52/32 28/53/35
f 28/48/35 30/4/37 27/50/36
f 27/50/36 30/4/37 29/54/38
f 26/52/32 3/55/39 31/56/40 28/53/35
f 28/53/35 31/56/40 30/57/37
f 26/48/32 70/2/34 3/1/39
f 32/5/41 77/16/42 80/14/43
f 30/4/37 34/5/44 29/54/38
f 29/54/38 34/5/44 33/7/45
f 31/56/40 77/58/42 32/9/41 30/57/37
f 30/57/37 32/9/41 34/12/44
f 34/5/44 36/6/46 33/7/45
f 33/7/45 36/6/46 35/8/47
f 32/9/41 79/10/48 37/11/49 34/12/44
f 34/12/44 37/11/49 36/13/46
f 32/5/41 80/14/43 79/15/48
f 38/17/50 73/18/51 74/19/52
f 36/6/46 40/17/53 35/8/47
f 35/8/47 40/17/53 39/20/54
f 37/11/49 73/21/51 38/22/50 36/13/46
f 36/13/46 38/22/50 40/23/53
f 40/17/53 42/24/55 39/20/54
f 39/20/54 42/24/55 41/25/56
f 38/22/50 55/26/57 43/27/58 40/23/53
f 40/23/53 43/27/58 42/28/55
f 38/17/50 74/19/52 55/29/57
f 44/30/59 66/31/60 56/32/61
f 42/24/55 46/30/62 41/25/56
f 41/25/56 46/30/62 45/33/63
f 43/27/58 66/34/60 44/35/59 42/28/55
f 42/28/55 44/35/59 46/36/62
f 46/37/62 48/38/64 45/39/63
f 45/39/63 48/38/64 47/40/65
f 44/41/59 64/42/66 49/43/67 46/44/62
f 46/44/62 49/43/67 48/45/64
f 44/37/59 56/46/61 64/47/66
f 50/48/68 69/49/69 6/2/2
f 48/38/64 52/48/70 47/40/65
f 47/40/65 52/48/70 51/50/71
f 49/43/67 69/51/69 50/52/68 48/45/64
f 48/45/64 50/52/68 52/53/70
f 52/48/70 54/4/72 51/50/71
f 51/50/71 54/4/72 53/54/73
f 50/52/68 4/55/1 13/56/4 52/53/70
f 52/53/70 13/56/4 54/57/72
f 50/48/68 6/2/2 4/1/1
f 54/4/72 9/5/5 53/54/73
f 53/54/73 9/5/5 8/7/7
f 13/56/4 65/58/13 11/9/9 54/57/72
f 54/57/72 11/9/9 9/12/5
f 6/2/2 69/49/69 5/59/74
f 69/49/69 49/38/67 5/59/74
f 64/47/66 5/59/74 49/38/67
f 64/47/66 56/46/61 5/59/74
f 56/32/61 66/31/60 57/60/75
f 66/31/60 43/24/58 57/60/75
f 55/29/57 57/60/75 43/24/58
f 55/29/57 74/19/52 57/60/75
f 74/19/52 73/18/51 76/61/76
f 73/18/51 37/6/49 76/61/76
f 79/15/48 76/61/76 37/6/49
f 79/15/48 80/14/43 76/61/76
f 80/14/43 77/16/42 78/3/77
f 77/16/42 31/4/40 78/3/77
f 3/1/39 78/3/77 31/4/40
f 3/1/39 70/2/34 78/3/77
f 70/2/34 67/49/33 68/59/78
f 67/49/33 25/38/31 68/59/78
f 2/47/30 68/59/78 25/38/31
f 2/47/30 71/46/25 68/59/78
f 71/32/25 1/31/24 72/60/79
f 1/31/24 19/24/22 72/60/79
f 75/29/21 72/60/79 19/24/22
f 75/29/21 58/19/16 72/60/79
f 58/19/16 61/18/15 63/61/80
f 61/18/15 12/6/11 63/61/80
f 60/14/12 65/16/13 59/3/3
f 65/16/13 13/4/4 59/3/3
f 62/15/10 63/61/80 12/6/11
f 62/15/10 60/14/12 63/61/80
