# Blender v2.76 (sub 0) OBJ File: 'tractor.blend'
# www.blender.org
mtllib tractor_wheel_back_R_metal.mtl
o metal_rear_right_tractor.007
v -1.389747 1.147320 -2.093418
v -1.389747 0.926084 -1.945592
v -1.389747 1.408276 -1.463399
v -1.389747 1.408276 -2.145328
v -1.389747 1.669247 -2.093418
v -1.389747 0.778272 -1.724371
v -1.389747 0.726363 -1.463399
v -1.389747 0.778272 -1.202443
v -1.389747 0.926084 -0.981207
v -1.389747 1.147319 -0.833395
v -1.389747 1.408276 -0.781486
v -1.389747 1.669247 -0.833395
v -1.389747 1.890483 -0.981207
v -1.389747 2.038295 -1.202443
v -1.389747 2.090204 -1.463399
v -1.389747 2.038295 -1.724355
v -1.389747 1.890483 -1.945592
v -1.159079 0.926084 -1.945606
v -1.159079 1.147320 -2.093418
v -1.159079 1.408276 -1.463399
v -1.159079 1.408276 -2.145328
v -1.159079 1.669247 -2.093418
v -1.159079 0.726363 -1.463399
v -1.159079 0.778272 -1.724355
v -1.159079 0.926084 -0.981207
v -1.159079 0.778272 -1.202443
v -1.159079 1.408276 -0.781486
v -1.159079 1.147319 -0.833395
v -1.159079 1.669247 -0.833395
v -1.159079 1.890483 -0.981207
v -1.159079 2.090204 -1.463399
v -1.159079 2.038295 -1.202443
v -1.159079 1.890483 -1.945592
v -1.159079 2.038295 -1.724355
vt 0.829590 0.510986
vt 0.813477 0.487305
vt 0.761230 0.539063
vt 0.834961 0.539063
vt 0.829590 0.567383
vt 0.789551 0.471191
vt 0.761230 0.465332
vt 0.789551 0.607422
vt 0.813477 0.591309
vt 0.761230 0.613037
vn -0.991300 -0.018800 0.130600
vn -0.991300 -0.047900 0.122900
vn -1.000000 -0.000000 -0.000000
vn -0.991300 -0.067400 0.113400
vn -0.991300 -0.105700 0.079100
vn -0.991300 0.079100 0.105700
vn -0.991300 0.053000 0.120800
vn -0.991300 0.130600 0.018800
vn -0.991300 0.123000 0.047900
vn -0.991300 0.105700 -0.079100
vn -0.991300 0.120800 -0.053000
vn -0.991300 0.091300 -0.095200
vn -0.991300 0.047900 -0.122900
vn -0.991300 -0.079000 -0.105700
vn -0.991300 -0.053000 -0.120800
vn -0.991300 -0.130600 -0.018800
vn -0.991300 -0.122900 -0.047900
vn 0.994500 0.102500 -0.022000
vn 0.994500 -0.070900 0.077300
vn 1.000000 0.000000 0.000000
vn 0.994500 -0.095000 0.044300
vn 0.994500 -0.104700 0.004500
vn 0.994500 0.056900 -0.088000
vn 0.994500 0.004500 0.104700
vn 0.994500 -0.022000 -0.102500
vn 0.994500 0.077300 0.070900
vn 0.994500 -0.088000 -0.056900
vn 0.994500 0.104700 -0.004500
vn 0.994500 -0.103100 -0.018900
vn 0.994500 -0.102500 0.022000
vn 0.994500 -0.056900 0.088000
vn 0.994500 -0.004500 -0.104700
vn 0.994500 0.022000 0.102500
vn 0.994500 -0.077200 -0.070800
usemtl tractor
s 1
f 1/1/1 2/2/2 3/3/3
f 3/3/3 4/4/4 1/1/1
f 4/4/4 3/3/3 5/5/5
f 6/6/6 7/7/7 3/3/3
f 3/3/3 2/2/2 6/6/6
f 8/8/8 9/9/9 3/3/3
f 3/3/3 7/10/7 8/8/8
f 10/5/10 11/4/11 3/3/3
f 3/3/3 11/4/11 12/1/12
f 3/3/3 9/9/9 10/5/10
f 12/1/12 13/2/13 3/3/3
f 14/6/14 15/7/15 3/3/3
f 3/3/3 13/2/13 14/6/14
f 16/8/16 17/9/17 3/3/3
f 3/3/3 15/10/15 16/8/16
f 3/3/3 17/9/17 5/5/5
f 18/2/18 19/1/19 20/3/20
f 21/4/21 20/3/20 19/1/19
f 20/3/20 21/4/21 22/5/22
f 23/7/23 24/6/24 20/3/20
f 18/2/18 20/3/20 24/6/24
f 25/9/25 26/8/26 20/3/20
f 23/10/23 20/3/20 26/8/26
f 27/4/27 28/5/28 20/3/20
f 27/4/27 20/3/20 29/1/29
f 25/9/25 20/3/20 28/5/28
f 30/2/30 29/1/29 20/3/20
f 31/7/31 32/6/32 20/3/20
f 30/2/30 20/3/20 32/6/32
f 33/9/33 34/8/34 20/3/20
f 31/10/31 20/3/20 34/8/34
f 33/9/33 20/3/20 22/5/22
