# Blender v2.76 (sub 0) OBJ File: 'tractor.blend'
# www.blender.org
mtllib tractor_wheel_front_R_metal.mtl
o metal_front_right_tractor.009
v -1.213460 1.134502 2.124435
v -1.213460 1.064692 2.019966
v -1.468574 0.682507 1.874795
v -1.327837 0.836964 1.931069
v -1.468574 0.836964 1.844063
v -1.204617 0.836964 2.247686
v -1.327837 0.613095 2.023817
v -1.327837 0.836964 2.247686
v -1.327837 1.060849 2.023817
v -1.327837 0.520362 2.247686
v -1.468574 0.551569 1.962291
v -1.468574 0.464074 2.093228
v -1.468574 0.433357 2.247686
v -1.468574 0.464073 2.402128
v -1.327837 0.613095 2.471555
v -1.327837 0.836964 2.564288
v -1.468574 0.551569 2.533081
v -1.468574 0.682522 2.620577
v -1.468574 0.836964 2.651294
v -1.468574 0.991422 2.620577
v -1.327837 1.060849 2.471555
v -1.327837 1.153566 2.247686
v -1.468574 1.122375 2.533081
v -1.468574 1.209855 2.402128
v -1.468574 1.240588 2.247686
v -1.468574 1.209855 2.093229
v -1.468574 1.122375 1.962291
v -1.468574 0.991422 1.874795
v -1.213460 1.159018 2.247686
v -1.213460 1.134502 2.370929
v -1.213460 0.609244 2.019966
v -1.213460 0.960207 1.950148
v -1.213460 0.836964 1.925633
v -1.213460 0.713721 1.950148
v -1.213460 0.539434 2.370929
v -1.213460 0.609244 2.475406
v -1.213460 0.514919 2.247686
v -1.213460 0.539434 2.124443
v -1.213460 1.064692 2.475406
v -1.213460 0.960207 2.545224
v -1.213460 0.713721 2.545224
v -1.213460 0.836964 2.569731
vt 0.708496 0.499023
vt 0.715332 0.517822
vt 0.704590 0.517822
vt 0.726563 0.490234
vt 0.754395 0.517822
vt 0.726563 0.545410
vt 0.754395 0.479004
vt 0.719238 0.482910
vt 0.735352 0.472168
vt 0.754395 0.468262
vt 0.735352 0.563721
vt 0.754395 0.556641
vt 0.754395 0.567383
vt 0.719238 0.552979
vt 0.708496 0.536865
vt 0.726318 0.545776
vt 0.717773 0.532959
vt 0.739258 0.554443
vt 0.754395 0.557373
vt 0.754395 0.478150
vt 0.739258 0.481323
vt 0.726318 0.489868
vt 0.717773 0.502807
vt 0.714600 0.517822
vn -0.546800 0.360800 0.755500
vn -0.807200 0.000000 0.590300
vn -0.489500 0.034200 0.871400
vn -0.807200 0.417400 0.417400
vn -1.000000 0.000000 0.000000
vn -0.807200 -0.417400 0.417400
vn -0.807200 0.590300 -0.000000
vn -0.479100 0.622100 0.619300
vn -0.546800 0.789400 0.279100
vn -0.479100 0.877800 -0.002000
vn -0.546800 0.755600 -0.360800
vn -0.807200 0.417400 -0.417400
vn -0.807100 0.000000 -0.590400
vn -0.479100 0.619300 -0.622000
vn -0.546800 0.279100 -0.789400
vn -0.479100 -0.002000 -0.877800
vn -0.546800 -0.360800 -0.755600
vn -0.807200 -0.417400 -0.417400
vn -0.807200 -0.590300 -0.000000
vn -0.479100 -0.622100 -0.619200
vn -0.546800 -0.789400 -0.279100
vn -0.479200 -0.877700 0.002000
vn -0.546800 -0.755500 0.360800
vn -0.479100 -0.619300 0.622100
vn -0.546800 -0.279100 0.789400
vn 0.999600 -0.006200 0.027300
vn 1.000000 -0.000000 0.000000
vn 0.999400 0.021400 0.026800
vn 0.999700 -0.020300 0.016900
vn 0.999600 -0.023700 0.014900
vn 0.999700 -0.026300 -0.002400
vn 0.999600 -0.027300 -0.006200
vn 0.999700 -0.016900 -0.020300
vn 0.999600 -0.014900 -0.023700
vn 0.999700 0.002400 -0.026300
vn 0.999600 0.006200 -0.027300
vn 0.999700 0.020300 -0.016900
vn 0.999600 0.023700 -0.014900
vn 0.999700 0.026300 0.002400
vn 0.999600 0.027300 0.006200
vn 0.999700 0.016900 0.020300
vn 0.999100 0.042200 0.005100
usemtl tractor
s 1
f 3/1/1 4/2/2 5/3/3
f 4/2/2 7/4/4 8/5/5
f 4/2/2 8/5/5 9/6/6
f 10/7/7 8/5/5 7/4/4
f 7/4/4 3/1/1 11/8/8
f 12/9/9 7/4/4 11/8/8
f 10/7/7 12/9/9 13/10/10
f 14/11/11 10/12/7 13/13/10
f 10/12/7 15/6/12 8/5/5
f 16/2/13 8/5/5 15/6/12
f 15/6/12 14/11/11 17/14/14
f 18/15/15 15/6/12 17/14/14
f 16/2/13 18/15/15 19/3/16
f 20/1/17 16/2/13 19/3/16
f 16/2/13 21/4/18 8/5/5
f 22/7/19 8/5/5 21/4/18
f 21/4/18 20/1/17 23/8/20
f 24/9/21 21/4/18 23/8/20
f 22/7/19 24/9/21 25/10/22
f 26/11/23 22/12/19 25/13/22
f 22/12/19 9/6/6 8/5/5
f 9/6/6 26/11/23 27/14/24
f 28/15/25 9/6/6 27/14/24
f 4/2/2 28/15/25 5/3/3
f 12/9/9 10/7/7 7/4/4
f 3/1/1 7/4/4 4/2/2
f 28/15/25 4/2/2 9/6/6
f 26/11/23 9/6/6 22/12/19
f 24/9/21 22/7/19 21/4/18
f 20/1/17 21/4/18 16/2/13
f 18/15/15 16/2/13 15/6/12
f 14/11/11 15/6/12 10/12/7
f 2/16/26 6/5/27 32/17/28
f 2/16/26 1/18/29 6/5/27
f 29/19/30 6/5/27 1/18/29
f 29/20/30 30/21/31 6/5/27
f 39/22/32 6/5/27 30/21/31
f 39/22/32 40/23/33 6/5/27
f 42/24/34 6/5/27 40/23/33
f 42/24/34 41/17/35 6/5/27
f 36/16/36 6/5/27 41/17/35
f 36/16/36 35/18/37 6/5/27
f 37/19/38 6/5/27 35/18/37
f 37/20/38 38/21/39 6/5/27
f 31/22/40 6/5/27 38/21/39
f 31/22/40 34/23/41 6/5/27
f 33/24/42 32/17/28 6/5/27
f 33/24/42 6/5/27 34/23/41
